<!--?xml version="1.0" encoding="UTF-8"?-->
<svg viewBox="0 0 1200 160" xmlns="http://www.w3.org/2000/svg" fill="none">
  <!-- All lines inherit from current text color -->
  <g stroke="currentColor" stroke-width="2" stroke-linecap="round" stroke-linejoin="round">
    <!-- Baseline -->
    <path d="M0 150 H1200"></path>

    <!-- Buildings (clean, consistent line weight) -->
    <rect x="30" y="72" width="42" height="78"></rect>
    <rect x="84" y="54" width="52" height="96"></rect>
    <rect x="150" y="88" width="36" height="62"></rect>
    <rect x="198" y="44" width="58" height="106"></rect>
    <path d="M227 44 V20 M227 20 L222 26 M227 20 L232 26"></path> <!-- small aerial/antenna -->

    <!-- Dome -->
    <path d="M290 120 h60 v-40 a30 30 0 0 0 -60 0 v40z"></path>
    <path d="M305 120 v-32 M335 120 v-32"></path>

    <!-- Tall tower -->
    <rect x="380" y="20" width="48" height="130"></rect>
    <path d="M404 20 v-10"></path>
    <path d="M390 46 h28 M390 70 h28 M390 94 h28 M390 118 h28"></path>

    <!-- Compact blocks -->
    <rect x="450" y="76" width="36" height="74"></rect>
    <rect x="494" y="64" width="42" height="86"></rect>

    <!-- Wheel (abstract London-eye style, but generic) -->
    <circle cx="580" cy="120" r="34"></circle>
    <path d="M580 86 V154 M546 120 H614"></path>
    <path d="M558 98 L602 142 M602 98 L558 142"></path>

    <!-- Pointed towers -->
    <path d="M650 150 V60 L675 36 L700 60 V150"></path>
    <path d="M710 150 V72 L730 48 L750 72 V150"></path>

    <!-- Slanted shard-like tower -->
    <path d="M780 150 L806 18 L824 150"></path>
    <path d="M794 72 L816 72 M792 96 L818 96"></path>

    <!-- Arched building -->
    <rect x="840" y="78" width="48" height="72"></rect>
    <path d="M840 78 h48 a8 8 0 0 0 -48 0z"></path>

    <!-- Low blocks -->
    <rect x="904" y="92" width="36" height="58"></rect>
    <rect x="946" y="66" width="54" height="84"></rect>

    <!-- Rounded-top tower -->
    <path d="M1020 150 V64 a20 20 0 0 1 40 0 v86"></path>
    <path d="M1030 92 h20 M1030 112 h20 M1030 132 h20"></path>

    <!-- Edge blocks -->
    <rect x="1080" y="84" width="40" height="66"></rect>
    <rect x="1128" y="56" width="52" height="94"></rect>
  </g>
</svg>
